<svg version="1.1" id="Layer_1" xmlns="http://www.w3.org/2000/svg" xmlns:xlink="http://www.w3.org/1999/xlink" x="0px" y="0px"
	 width="100%" viewBox="0 0 512 512" enable-background="new 0 0 512 512" xml:space="preserve">
<path fill="#000000" opacity="1.000000" stroke="none" 
	d="
M345.000000,513.000000 
	C230.027939,513.000000 115.555870,513.000000 1.041900,513.000000 
	C1.041900,342.402924 1.041900,171.805817 1.041900,1.104355 
	C171.555405,1.104355 342.110901,1.104355 512.833191,1.104355 
	C512.833191,171.666534 512.833191,342.333252 512.833191,513.000000 
	C457.139069,513.000000 401.319550,513.000000 345.000000,513.000000 
M391.542175,457.001984 
	C389.466736,467.424377 387.391266,477.846771 385.235565,488.672272 
	C393.265320,488.672272 400.821045,488.672272 408.625305,488.672272 
	C408.908630,486.033325 409.164276,483.652130 409.451813,480.973877 
	C420.758636,480.973877 431.580566,481.176971 442.392120,480.928986 
	C461.218750,480.497131 476.252289,462.918976 473.731537,444.476318 
	C472.853027,438.048920 471.751648,431.651520 470.717438,425.245972 
	C463.452148,380.247711 456.110504,335.261658 448.935669,290.248962 
	C445.517700,268.805420 431.152008,252.824463 409.709320,249.983154 
	C396.107635,248.180847 382.125275,249.180740 368.313507,249.176117 
	C367.271088,249.175781 365.741394,251.021439 365.274597,252.311630 
	C363.747711,256.531403 362.470123,260.855988 361.357971,265.207092 
	C360.259979,269.502747 357.742615,271.973511 353.489014,273.334564 
	C340.484802,277.495544 327.569153,281.932983 314.610352,286.236694 
	C312.440399,286.957367 310.227051,287.547363 307.592926,288.328430 
	C305.870789,283.260803 304.290070,278.609192 302.588501,273.602112 
	C304.792358,272.766602 306.456268,272.071686 308.161407,271.499756 
	C319.528259,267.687073 330.863068,263.770050 342.302612,260.188141 
	C345.579773,259.162018 347.162506,257.420776 348.021301,254.196228 
	C349.691254,247.925980 351.722595,241.751083 353.639832,235.547714 
	C361.653290,209.619415 363.854401,183.179901 358.490997,156.591125 
	C347.290253,101.064354 315.795135,61.127735 264.605652,36.667259 
	C259.111542,34.041954 254.571075,34.254963 249.121323,36.786022 
	C216.479645,51.945984 191.114670,74.983322 173.566925,106.351616 
	C156.649033,136.594009 150.265015,169.084076 153.734146,203.623672 
	C155.550110,221.703766 161.474243,238.679794 166.700912,255.856064 
	C167.199295,257.493866 169.346832,259.180634 171.097656,259.797302 
	C182.718811,263.890442 194.443939,267.687927 206.125870,271.609558 
	C207.789825,272.168121 209.403137,272.877594 211.320709,273.626984 
	C210.022781,277.631012 208.778931,281.060699 207.814178,284.567108 
	C206.968262,287.641602 205.576263,288.427643 202.396027,287.304382 
	C192.192001,283.700165 181.850571,280.487274 171.613083,276.975037 
	C150.739456,269.813812 155.907715,274.442352 149.337372,253.886765 
	C148.170364,250.235825 146.795792,248.824585 142.886444,248.909271 
	C131.226822,249.161865 119.557884,248.942352 107.893265,249.015793 
	C82.351486,249.176605 61.193253,266.750336 57.006279,291.932404 
	C48.902637,340.670776 41.061638,389.453369 33.281364,438.244690 
	C30.211164,457.498413 43.625702,477.037811 62.878826,479.846069 
	C74.480392,481.538330 86.450706,480.708893 98.255775,480.993469 
	C100.352966,481.044037 102.452431,481.000671 104.616302,481.000671 
	C104.927437,484.012482 105.160484,486.268463 105.401054,488.597198 
	C113.272202,488.597198 120.802422,488.597198 128.575653,488.597198 
	C128.268143,486.534271 128.094437,484.887054 127.771065,483.269745 
	C117.722763,433.015350 107.662895,382.763306 97.595947,332.512634 
	C96.067192,324.881622 99.109818,321.016327 106.919518,321.014771 
	C206.905823,320.994751 306.892151,320.995758 406.878448,321.012299 
	C414.974731,321.013641 417.916962,324.788757 416.319244,332.807220 
	C408.125488,373.929443 399.944122,415.054077 391.542175,457.001984 
M176.500000,481.001312 
	C241.088150,481.001312 305.676300,481.001312 370.438324,481.001312 
	C380.073181,432.819092 389.609802,385.128113 399.169586,337.321259 
	C304.147461,337.321259 209.636688,337.321259 114.819092,337.321259 
	C124.441490,385.408783 133.989899,433.126495 143.569717,481.001312 
	C154.535721,481.001312 165.017853,481.001312 176.500000,481.001312 
z"/>
<path fill="#4E4E4F" opacity="1.000000" stroke="none" 
	d="
M391.650269,456.589935 
	C399.944122,415.054077 408.125488,373.929443 416.319244,332.807220 
	C417.916962,324.788757 414.974731,321.013641 406.878448,321.012299 
	C306.892151,320.995758 206.905823,320.994751 106.919518,321.014771 
	C99.109818,321.016327 96.067192,324.881622 97.595947,332.512634 
	C107.662895,382.763306 117.722763,433.015350 127.771065,483.269745 
	C128.094437,484.887054 128.268143,486.534271 128.575653,488.597198 
	C120.802422,488.597198 113.272202,488.597198 105.401054,488.597198 
	C105.160484,486.268463 104.927437,484.012482 104.616302,481.000671 
	C102.452431,481.000671 100.352966,481.044037 98.255775,480.993469 
	C86.450706,480.708893 74.480392,481.538330 62.878826,479.846069 
	C43.625702,477.037811 30.211164,457.498413 33.281364,438.244690 
	C41.061638,389.453369 48.902637,340.670776 57.006279,291.932404 
	C61.193253,266.750336 82.351486,249.176605 107.893265,249.015793 
	C119.557884,248.942352 131.226822,249.161865 142.886444,248.909271 
	C146.795792,248.824585 148.170364,250.235825 149.337372,253.886765 
	C155.907715,274.442352 150.739456,269.813812 171.613083,276.975037 
	C181.850571,280.487274 192.192001,283.700165 202.396027,287.304382 
	C205.576263,288.427643 206.968262,287.641602 207.814178,284.567108 
	C208.778931,281.060699 210.022781,277.631012 211.320709,273.626984 
	C209.403137,272.877594 207.789825,272.168121 206.125870,271.609558 
	C194.443939,267.687927 182.718811,263.890442 171.097656,259.797302 
	C169.346832,259.180634 167.199295,257.493866 166.700912,255.856064 
	C161.474243,238.679794 155.550110,221.703766 153.734146,203.623672 
	C150.265015,169.084076 156.649033,136.594009 173.566925,106.351616 
	C191.114670,74.983322 216.479645,51.945984 249.121323,36.786022 
	C254.571075,34.254963 259.111542,34.041954 264.605652,36.667259 
	C315.795135,61.127735 347.290253,101.064354 358.490997,156.591125 
	C363.854401,183.179901 361.653290,209.619415 353.639832,235.547714 
	C351.722595,241.751083 349.691254,247.925980 348.021301,254.196228 
	C347.162506,257.420776 345.579773,259.162018 342.302612,260.188141 
	C330.863068,263.770050 319.528259,267.687073 308.161407,271.499756 
	C306.456268,272.071686 304.792358,272.766602 302.588501,273.602112 
	C304.290070,278.609192 305.870789,283.260803 307.592926,288.328430 
	C310.227051,287.547363 312.440399,286.957367 314.610352,286.236694 
	C327.569153,281.932983 340.484802,277.495544 353.489014,273.334564 
	C357.742615,271.973511 360.259979,269.502747 361.357971,265.207092 
	C362.470123,260.855988 363.747711,256.531403 365.274597,252.311630 
	C365.741394,251.021439 367.271088,249.175781 368.313507,249.176117 
	C382.125275,249.180740 396.107635,248.180847 409.709320,249.983154 
	C431.152008,252.824463 445.517700,268.805420 448.935669,290.248962 
	C456.110504,335.261658 463.452148,380.247711 470.717438,425.245972 
	C471.751648,431.651520 472.853027,438.048920 473.731537,444.476318 
	C476.252289,462.918976 461.218750,480.497131 442.392120,480.928986 
	C431.580566,481.176971 420.758636,480.973877 409.451813,480.973877 
	C409.164276,483.652130 408.908630,486.033325 408.625305,488.672272 
	C400.821045,488.672272 393.265320,488.672272 385.235565,488.672272 
	C387.391266,477.846771 389.466736,467.424377 391.650269,456.589935 
M181.717422,151.216675 
	C179.545074,151.938705 177.372726,152.660736 174.841385,153.502075 
	C176.002914,157.534607 177.132172,161.161758 178.078995,164.835907 
	C178.822784,167.722229 180.401627,168.577271 183.220825,167.635086 
	C186.487610,166.543320 189.813080,165.627090 193.636414,164.477264 
	C194.158920,167.937286 194.689270,170.680161 194.972549,173.448318 
	C197.004318,193.303436 198.849396,213.179520 201.150574,233.002899 
	C201.448929,235.572983 203.463608,238.685089 205.627243,240.178329 
	C220.840302,250.677704 236.318085,260.792816 251.669739,271.092621 
	C255.296524,273.525940 258.702850,273.528717 262.325256,271.100739 
	C277.679626,260.809174 293.155121,250.694885 308.367401,240.198486 
	C310.533020,238.704224 312.511353,235.598022 312.844879,233.014359 
	C314.547729,219.823135 315.659271,206.556183 317.022888,193.320374 
	C317.989746,183.935867 319.028412,174.558731 320.033051,165.196594 
	C321.512909,165.196594 322.355469,165.069153 323.145813,165.218231 
	C326.974457,165.940308 332.184540,168.600891 334.263031,167.045013 
	C336.994293,165.000519 337.271667,159.662079 338.563171,155.726654 
	C338.761597,155.121979 338.739868,154.445053 338.841461,153.628998 
	C338.057495,153.217041 337.379578,152.711105 336.618378,152.482513 
	C310.958099,144.777084 285.302887,137.053680 259.596405,129.505142 
	C257.679657,128.942307 255.268265,129.257980 253.287125,129.843277 
	C229.665924,136.821793 206.082748,143.928940 181.717422,151.216675 
z"/>
<path fill="#B1B0B3" opacity="1.000000" stroke="none" 
	d="
M176.000000,481.001312 
	C165.017853,481.001312 154.535721,481.001312 143.569717,481.001312 
	C133.989899,433.126495 124.441490,385.408783 114.819092,337.321259 
	C209.636688,337.321259 304.147461,337.321259 399.169586,337.321259 
	C389.609802,385.128113 380.073181,432.819092 370.438324,481.001312 
	C305.676300,481.001312 241.088150,481.001312 176.000000,481.001312 
M196.039795,379.463928 
	C196.265198,380.089630 196.497437,380.713013 196.715042,381.341400 
	C204.260742,403.132782 199.104538,397.834625 220.363739,405.061188 
	C223.899872,406.263214 224.968582,407.896790 225.186966,411.686371 
	C225.515396,417.385590 224.058640,420.653046 218.086670,421.696716 
	C214.522217,422.319672 211.044907,423.694885 207.677048,425.090546 
	C205.761139,425.884521 203.199081,427.025299 202.551910,428.654816 
	C199.213959,437.059143 196.401352,445.672150 193.334564,454.414398 
	C198.844559,456.233521 203.529068,457.780090 208.074097,459.280640 
	C208.549026,458.713318 208.849838,458.498962 208.948166,458.214600 
	C210.306259,454.286774 211.657654,450.356354 212.969223,446.412781 
	C215.670731,438.289917 216.078613,437.949615 224.853622,436.842651 
	C230.776627,455.533325 240.733002,464.527039 255.965561,464.946411 
	C271.852112,465.383820 281.229218,457.408630 289.351746,436.652496 
	C296.211548,436.975922 300.132294,440.331512 301.400391,447.280060 
	C302.149445,451.384369 304.067596,455.275360 305.538544,459.487213 
	C310.816467,457.705933 315.483307,456.130920 320.481842,454.443939 
	C319.234863,450.589111 318.193115,447.105652 316.985992,443.680450 
	C309.871277,423.492340 314.921448,427.955261 294.088989,421.058563 
	C290.014526,419.709686 289.019318,417.871613 288.816864,413.780212 
	C288.551361,408.414795 290.011444,405.560822 295.506104,404.550598 
	C299.228241,403.866241 302.845978,402.384613 306.363586,400.909515 
	C308.276398,400.107391 310.820404,398.945740 311.469452,397.308105 
	C314.799042,388.906799 317.605408,380.298126 320.670685,371.544617 
	C315.146179,369.694153 310.473572,368.128998 305.463959,366.450989 
	C303.828552,371.339630 301.860992,375.631409 301.009705,380.134216 
	C299.696564,387.080078 294.962830,388.699402 289.727814,389.312866 
	C287.466553,385.154694 285.313629,381.451996 283.424164,377.619415 
	C282.388000,375.517639 281.236481,373.227325 281.113129,370.968689 
	C280.790314,365.059052 281.004272,359.120117 281.004272,353.366821 
	C275.259094,353.366821 270.192871,353.366821 264.843414,353.366821 
	C264.843414,358.681671 264.843414,363.629120 264.843414,368.728577 
	C259.475311,368.728577 254.415939,368.728577 248.877106,368.728577 
	C248.877106,363.402252 248.877106,358.328491 248.877106,353.335388 
	C243.325882,353.335388 238.266052,353.335388 232.996552,353.335388 
	C232.996552,359.488647 233.027008,365.304840 232.975342,371.120300 
	C232.962280,372.590332 233.127106,374.310242 232.455063,375.482422 
	C229.773758,380.159363 226.794510,384.665466 223.895859,389.282074 
	C217.565201,389.050812 213.827652,385.406830 212.540741,378.558655 
	C211.787781,374.551849 209.971161,370.744904 208.512039,366.495758 
	C203.353348,368.253601 198.571320,369.883087 193.477112,371.618958 
	C194.379105,374.311554 195.112717,376.501526 196.039795,379.463928 
z"/>
<path fill="#020202" opacity="1.000000" stroke="none" 
	d="
M182.103516,151.109528 
	C206.082748,143.928940 229.665924,136.821793 253.287125,129.843277 
	C255.268265,129.257980 257.679657,128.942307 259.596405,129.505142 
	C285.302887,137.053680 310.958099,144.777084 336.618378,152.482513 
	C337.379578,152.711105 338.057495,153.217041 338.841461,153.628998 
	C338.739868,154.445053 338.761597,155.121979 338.563171,155.726654 
	C337.271667,159.662079 336.994293,165.000519 334.263031,167.045013 
	C332.184540,168.600891 326.974457,165.940308 323.145813,165.218231 
	C322.355469,165.069153 321.512909,165.196594 320.033051,165.196594 
	C319.028412,174.558731 317.989746,183.935867 317.022888,193.320374 
	C315.659271,206.556183 314.547729,219.823135 312.844879,233.014359 
	C312.511353,235.598022 310.533020,238.704224 308.367401,240.198486 
	C293.155121,250.694885 277.679626,260.809174 262.325256,271.100739 
	C258.702850,273.528717 255.296524,273.525940 251.669739,271.092621 
	C236.318085,260.792816 220.840302,250.677704 205.627243,240.178329 
	C203.463608,238.685089 201.448929,235.572983 201.150574,233.002899 
	C198.849396,213.179520 197.004318,193.303436 194.972549,173.448318 
	C194.689270,170.680161 194.158920,167.937286 193.636414,164.477264 
	C189.813080,165.627090 186.487610,166.543320 183.220825,167.635086 
	C180.401627,168.577271 178.822784,167.722229 178.078995,164.835907 
	C177.132172,161.161758 176.002914,157.534607 174.841385,153.502075 
	C177.372726,152.660736 179.545074,151.938705 182.103516,151.109528 
M303.638458,166.367462 
	C303.778351,164.091782 303.918243,161.816116 304.064087,159.443542 
	C288.863831,154.882706 274.084045,150.423920 259.278992,146.050659 
	C258.070526,145.693710 256.589417,145.579239 255.404099,145.927597 
	C240.292389,150.368439 225.211624,154.914566 209.709579,159.557739 
	C210.074234,162.235916 210.403656,164.655334 210.626495,167.973251 
	C212.460907,186.838120 214.217728,205.711334 216.244843,224.555466 
	C216.457092,226.528641 217.806030,228.994019 219.408356,230.104691 
	C230.875259,238.053101 242.491318,245.792236 254.222519,253.345428 
	C255.563034,254.208527 258.393219,254.266647 259.711487,253.419754 
	C271.453918,245.875916 283.053406,238.105576 294.570557,230.220184 
	C296.007080,229.236649 297.481628,227.273804 297.650940,225.631943 
	C299.662842,206.123978 301.430206,186.590790 303.638458,166.367462 
z"/>
<path fill="#020202" opacity="1.000000" stroke="none" 
	d="
M195.943054,379.077698 
	C195.112717,376.501526 194.379105,374.311554 193.477112,371.618958 
	C198.571320,369.883087 203.353348,368.253601 208.512039,366.495758 
	C209.971161,370.744904 211.787781,374.551849 212.540741,378.558655 
	C213.827652,385.406830 217.565201,389.050812 223.895859,389.282074 
	C226.794510,384.665466 229.773758,380.159363 232.455063,375.482422 
	C233.127106,374.310242 232.962280,372.590332 232.975342,371.120300 
	C233.027008,365.304840 232.996552,359.488647 232.996552,353.335388 
	C238.266052,353.335388 243.325882,353.335388 248.877106,353.335388 
	C248.877106,358.328491 248.877106,363.402252 248.877106,368.728577 
	C254.415939,368.728577 259.475311,368.728577 264.843414,368.728577 
	C264.843414,363.629120 264.843414,358.681671 264.843414,353.366821 
	C270.192871,353.366821 275.259094,353.366821 281.004272,353.366821 
	C281.004272,359.120117 280.790314,365.059052 281.113129,370.968689 
	C281.236481,373.227325 282.388000,375.517639 283.424164,377.619415 
	C285.313629,381.451996 287.466553,385.154694 289.727814,389.312866 
	C294.962830,388.699402 299.696564,387.080078 301.009705,380.134216 
	C301.860992,375.631409 303.828552,371.339630 305.463959,366.450989 
	C310.473572,368.128998 315.146179,369.694153 320.670685,371.544617 
	C317.605408,380.298126 314.799042,388.906799 311.469452,397.308105 
	C310.820404,398.945740 308.276398,400.107391 306.363586,400.909515 
	C302.845978,402.384613 299.228241,403.866241 295.506104,404.550598 
	C290.011444,405.560822 288.551361,408.414795 288.816864,413.780212 
	C289.019318,417.871613 290.014526,419.709686 294.088989,421.058563 
	C314.921448,427.955261 309.871277,423.492340 316.985992,443.680450 
	C318.193115,447.105652 319.234863,450.589111 320.481842,454.443939 
	C315.483307,456.130920 310.816467,457.705933 305.538544,459.487213 
	C304.067596,455.275360 302.149445,451.384369 301.400391,447.280060 
	C300.132294,440.331512 296.211548,436.975922 289.351746,436.652496 
	C281.229218,457.408630 271.852112,465.383820 255.965561,464.946411 
	C240.733002,464.527039 230.776627,455.533325 224.853622,436.842651 
	C216.078613,437.949615 215.670731,438.289917 212.969223,446.412781 
	C211.657654,450.356354 210.306259,454.286774 208.948166,458.214600 
	C208.849838,458.498962 208.549026,458.713318 208.074097,459.280640 
	C203.529068,457.780090 198.844559,456.233521 193.334564,454.414398 
	C196.401352,445.672150 199.213959,437.059143 202.551910,428.654816 
	C203.199081,427.025299 205.761139,425.884521 207.677048,425.090546 
	C211.044907,423.694885 214.522217,422.319672 218.086670,421.696716 
	C224.058640,420.653046 225.515396,417.385590 225.186966,411.686371 
	C224.968582,407.896790 223.899872,406.263214 220.363739,405.061188 
	C199.104538,397.834625 204.260742,403.132782 196.715042,381.341400 
	C196.497437,380.713013 196.265198,380.089630 195.943054,379.077698 
M262.979889,447.838165 
	C273.889374,442.234833 273.938171,435.240234 272.387817,417.315247 
	C262.006134,417.315247 251.630646,417.315247 241.000778,417.315247 
	C241.000778,422.426971 240.958267,427.226166 241.009140,432.024353 
	C241.136932,444.077789 250.575104,451.195648 262.979889,447.838165 
M272.981415,392.991547 
	C272.514923,388.140503 269.882080,385.274384 265.002838,385.067505 
	C259.681915,384.841949 254.338730,384.867554 249.015182,385.059387 
	C244.252075,385.231049 241.339569,388.221710 241.046814,392.964172 
	C240.886963,395.553528 241.018265,398.160919 241.018265,400.665833 
	C252.028000,400.665833 262.427765,400.665833 272.998047,400.665833 
	C272.998047,398.176971 272.998047,396.021851 272.981415,392.991547 
z"/>
<path fill="#F5C7A6" opacity="1.000000" stroke="none" 
	d="
M303.261719,167.064209 
	C301.430206,186.590790 299.662842,206.123978 297.650940,225.631943 
	C297.481628,227.273804 296.007080,229.236649 294.570557,230.220184 
	C283.053406,238.105576 271.453918,245.875916 259.711487,253.419754 
	C258.393219,254.266647 255.563034,254.208527 254.222519,253.345428 
	C242.491318,245.792236 230.875259,238.053101 219.408356,230.104691 
	C217.806030,228.994019 216.457092,226.528641 216.244843,224.555466 
	C214.217728,205.711334 212.460907,186.838120 211.038666,167.374786 
	C226.030533,162.336136 240.604813,157.877930 255.201309,153.493652 
	C256.250946,153.178360 257.551514,153.108566 258.585724,153.420639 
	C273.492798,157.918579 288.374146,162.501587 303.261719,167.064209 
z"/>
<path fill="#E0AD89" opacity="1.000000" stroke="none" 
	d="
M303.450073,166.715836 
	C288.374146,162.501587 273.492798,157.918579 258.585724,153.420639 
	C257.551514,153.108566 256.250946,153.178360 255.201309,153.493652 
	C240.604813,157.877930 226.030533,162.336136 211.091949,166.925522 
	C210.403656,164.655334 210.074234,162.235916 209.709579,159.557739 
	C225.211624,154.914566 240.292389,150.368439 255.404099,145.927597 
	C256.589417,145.579239 258.070526,145.693710 259.278992,146.050659 
	C274.084045,150.423920 288.863831,154.882706 304.064087,159.443542 
	C303.918243,161.816116 303.778351,164.091782 303.450073,166.715836 
z"/>
<path fill="#F4BA1B" opacity="1.000000" stroke="none" 
	d="
M262.598755,447.946289 
	C250.575104,451.195648 241.136932,444.077789 241.009140,432.024353 
	C240.958267,427.226166 241.000778,422.426971 241.000778,417.315247 
	C251.630646,417.315247 262.006134,417.315247 272.387817,417.315247 
	C273.938171,435.240234 273.889374,442.234833 262.598755,447.946289 
z"/>
<path fill="#F4BA1B" opacity="1.000000" stroke="none" 
	d="
M272.989746,393.429138 
	C272.998047,396.021851 272.998047,398.176971 272.998047,400.665833 
	C262.427765,400.665833 252.028000,400.665833 241.018265,400.665833 
	C241.018265,398.160919 240.886963,395.553528 241.046814,392.964172 
	C241.339569,388.221710 244.252075,385.231049 249.015182,385.059387 
	C254.338730,384.867554 259.681915,384.841949 265.002838,385.067505 
	C269.882080,385.274384 272.514923,388.140503 272.989746,393.429138 
z"/>
</svg>